<?xml version="1.0" encoding="UTF-8"?>
<svg enable-background="new 0 0 512 512" viewBox="0 0 512 512" xmlns="http://www.w3.org/2000/svg">
  <path d="m168.02 117.14c-32.074 0-56.601 13.585-56.601 50.941v53.583c0 37.357 24.527 50.941 56.601 50.941 31.697 0 56.601-13.584 56.601-50.941v-53.583c0-37.357-24.904-50.941-56.601-50.941zm18.868 104.52c0 12.453-7.169 18.112-18.867 18.112s-18.49-5.661-18.49-18.112v-53.583c0-12.453 6.792-18.112 18.49-18.112s18.867 5.661 18.867 18.112v53.583z"/>
  <path d="m319.33 101.67c-6.792 0-12.829 3.019-15.848 9.433l-132.45 272.06c-1.133 2.264-1.887 4.906-1.887 7.17 0 9.433 8.301 19.999 21.132 19.999 7.17 0 14.339-3.773 16.979-9.434l132.82-272.06c1.131-2.264 1.509-4.906 1.509-7.17 0-12.074-11.698-19.999-22.263-19.999z"/>
  <path d="m341.21 238.64c-32.073 0-56.6 13.584-56.6 50.941v53.583c0 37.357 24.527 50.941 56.6 50.941 31.697 0 56.601-13.584 56.601-50.941v-53.583c1e-3 -37.357-24.903-50.941-56.601-50.941zm18.868 104.52c0 12.453-7.17 18.112-18.868 18.112s-18.489-5.661-18.489-18.112v-53.583c0-12.453 6.792-18.112 18.489-18.112 11.698 0 18.868 5.661 18.868 18.112v53.583z"/>
  <path d="m256 0c-141.49 0-256 114.5-256 256 0 141.49 114.5 256 256 256 141.49 0 256-114.5 256-256 0-141.49-114.5-256-256-256zm0 478.66c-122.77 0-222.66-99.883-222.66-222.66s99.884-222.66 222.66-222.66 222.66 99.884 222.66 222.66-99.884 222.66-222.66 222.66z"/>
</svg>
