<?xml version="1.0" encoding="UTF-8"?>
<svg
  version="1.1" viewBox="0 0 45.352 45.352" xmlns="http://www.w3.org/2000/svg"
>
  <path d="m32.459 0c-2.737 0-5.019 2.117-5.213 4.847l-1.396 19.492c-0.062 0.85 0.231 1.692 0.813 2.315 0.58 0.623 1.393 0.984 2.244 0.984h0.082l-0.477 15.262c-0.021 0.653 0.225 1.268 0.68 1.735 0.454 0.47 1.079 0.715 1.732 0.715h2.002c1.332 0 2.443-1.049 2.443-2.383v-40.073c0-1.598-1.311-2.894-2.91-2.894z"/>
  <path d="m20.945 0.032h-0.204c-0.487 0-0.861 0.365-0.861 0.854v8.59c0 0.762-0.639 1.385-1.4 1.385h-0.205c-0.761 0-1.406-0.623-1.406-1.385v-8.59c0-0.488-0.367-0.854-0.855-0.854h-0.207c-0.488 0-0.876 0.365-0.876 0.854v8.59c0 0.762-0.624 1.385-1.386 1.385h-0.204c-0.761 0-1.351-0.623-1.351-1.385v-8.59c0-0.488-0.423-0.854-0.911-0.854h-0.205c-0.487 0-0.892 0.365-0.892 0.854v12.993c0 1.598 1.303 2.862 2.901 2.862h0.386l-0.816 26.153c-0.021 0.653 0.224 1.271 0.679 1.74 0.454 0.469 1.08 0.718 1.734 0.718h1.924c0.652 0 1.278-0.249 1.733-0.718 0.455-0.47 0.699-1.095 0.68-1.748l-0.816-26.146h0.55c1.599 0 2.88-1.265 2.88-2.862v-12.993c-2e-3 -0.489-0.382-0.853-0.872-0.853z"/>
</svg>
